# xmcd
#
# Track frame offsets: 
#        150
#        13020
#        23331
#        36706
#        56779
#        64894
#        78375
#        96881
#        107239
#        124420
#        136419
#        152208
#        168341
#        181570
#        192067
#        204837
#        216871
#        231017
#        243097
#        254434
#
# Disc length: 3543 seconds
#
# Revision: 0
# Processed by: cddbd v1.5.1PL2 Copyright (c) Steve Scherf et al.
# Submitted via: ExactAudioCopy v0.95a5
#
DISCID=100dd514
DTITLE=Roger Whittaker - 60 Wereldsuccessen [CD3)
DYEAR=2003
DGENRE=Folk
TTITLE0=Greensleeves
TTITLE1=Early One Morning
TTITLE2=Fairy-Tale
TTITLE3=Got To Head On Down The Road
TTITLE4=My Song
TTITLE5=Half-Way Up The Mountain
TTITLE6=He Ain't Heavy, He's My Brother
TTITLE7=Quel Monde Merveilleux (What A Wonderful World)
TTITLE8=You've Got A Friend
TTITLE9=Santa Anna
TTITLE10=What I Left Behind
TTITLE11=Emily
TTITLE12=Petit Fleur
TTITLE13=The Charge Of The Lightbrigade
TTITLE14=The Sinner
TTITLE15=Moonshine
TTITLE16=Handful Of Dreams
TTITLE17=Jenny's Gone (And I Don't Care)
TTITLE18=I Believe
TTITLE19=After The Laughter (Came Tears)
EXTD=
EXTT0=
EXTT1=
EXTT2=
EXTT3=
EXTT4=
EXTT5=
EXTT6=
EXTT7=
EXTT8=
EXTT9=
EXTT10=
EXTT11=
EXTT12=
EXTT13=
EXTT14=
EXTT15=
EXTT16=
EXTT17=
EXTT18=
EXTT19=
PLAYORDER=
